/vscmnt/brussel_pixiu_data/_data_brussel/112/vsc11236/PredSimResults/SUBJ06opt3D/weighted-expIG/worker_03.mot
version=1
nRows=4
nColumns=50
inDegrees=yes
endheader
                time	         pelvis_tilt	         pelvis_list	     pelvis_rotation	           pelvis_tx	           pelvis_ty	           pelvis_tz	       hip_flexion_r	     hip_adduction_r	      hip_rotation_r	        knee_angle_r	       ankle_angle_r	         mtp_angle_r	       hip_flexion_l	     hip_adduction_l	      hip_rotation_l	        knee_angle_l	       ankle_angle_l	         mtp_angle_l	    lumbar_extension	      lumbar_bending	     lumbar_rotation	 ercspn_r/activation	 intobl_r/activation	 extobl_r/activation	    abd_r/activation	    add_r/activation	hamstrings_r/activation	bifemsh_r/activation	glut_max_r/activation	iliopsoas_r/activation	rect_fem_r/activation	  vasti_r/activation	gastroc_r/activation	 soleus_r/activation	tib_ant_r/activation	 ercspn_l/activation	 intobl_l/activation	 extobl_l/activation	    abd_l/activation	    add_l/activation	hamstrings_l/activation	bifemsh_l/activation	glut_max_l/activation	iliopsoas_l/activation	rect_fem_l/activation	  vasti_l/activation	gastroc_l/activation	 soleus_l/activation	tib_ant_l/activation	
          0.00000000	         -6.68828018	         -0.80616061	          4.26580934	          0.00000000	          0.92812239	         -0.01026898	         33.26797699	         -0.87804861	         -6.73783781	         -8.73100389	          0.14314496	          0.22437241	         -9.18264266	         -0.22962431	         -6.53831412	        -11.64494490	          8.83900124	         33.95620256	         -5.26777578	         -0.35972618	         -8.23533825	          0.18311265	          0.14246399	          0.00999999	          0.00999999	          0.34561034	          0.06450173	          0.10750445	          0.01842443	          0.11743838	          0.01390560	          0.00999999	          0.00999999	          0.00999999	          0.50297247	          0.13120484	          0.00999999	          0.00999999	          0.09054285	          0.00999999	          0.00999999	          0.26612106	          0.01511443	          0.65772011	          0.01206342	          0.00999999	          0.24744122	          0.39508990	          0.02116301	
          0.01236785	         -6.78677463	         -0.73813648	          4.29163844	          0.01700247	          0.92626036	         -0.00944659	         33.47040723	         -0.77211995	         -6.80129955	        -10.60837064	         -0.14468630	          0.21491707	         -9.53982251	         -0.34592559	         -6.93323627	        -12.66120855	          7.84484124	         35.90194312	         -4.92532445	         -0.01583152	         -8.71275464	          0.17329973	          0.11811653	          0.00999999	          0.00999999	          0.42591304	          0.06806696	          0.08913166	          0.11454752	          0.09736786	          0.01152910	          0.00999999	          0.01496361	          0.01754619	          0.51818279	          0.17925191	          0.00999999	          0.00999999	          0.07506885	          0.01000001	          0.01000003	          0.22064035	          0.01454751	          0.65663777	          0.01000177	          0.00999999	          0.21109657	          0.37123113	          0.01754619	
          0.02473570	         -6.85806904	         -0.73000165	          4.30677343	          0.03450051	          0.92460686	         -0.00858733	         33.42757765	         -0.69587852	         -6.65746999	        -12.33535680	         -0.38151432	          0.19194627	         -9.74970109	         -0.56367791	         -7.31816252	        -14.02484268	          6.71480900	         37.90526514	         -4.55026981	          0.40029543	         -9.14635264	          0.14368238	          0.09793011	          0.00999999	          0.03392719	          0.35312340	          0.07253975	          0.07389883	          0.11492065	          0.08072744	          0.00999999	          0.00999999	          0.01240629	          0.01454750	          0.56544247	          0.16323013	          0.00999999	          0.00999999	          0.06223939	          0.01000000	          0.01000000	          0.21178272	          0.01206130	          0.65157635	          0.00999999	          0.00999999	          0.17501962	          0.34255659	          0.01454750	
          0.03710356	         -6.90605917	         -0.75717822	          4.29753097	          0.05222846	          0.92323432	         -0.00758858	         33.22509244	         -0.60307525	         -6.64262352	        -13.82722082	         -0.72114890	          0.17773359	         -9.73413931	         -0.86735173	         -7.70692919	        -15.83529629	          5.41116887	         39.95571261	         -4.17630304	          0.84760556	         -9.52372490	          0.15540720	          0.08119360	          0.00999999	          0.08290750	          0.32025003	          0.07713194	          0.06126933	          0.12922753	          0.06693091	          0.00999999	          0.04944970	          0.01028602	          0.01206130	          0.61631514	          0.17000705	          0.00999999	          0.00999999	          0.05160252	          0.00999999	          0.01000000	          0.19584751	          0.00999999	          0.58997660	          0.00999999	          0.00999999	          0.14510832	          0.30052431	          0.01206130	
